<svg width="47" height="47" viewBox="0 0 47 47" fill="none" xmlns="http://www.w3.org/2000/svg">
<path fill-rule="evenodd" clip-rule="evenodd" d="M14.619 2.0875C16.9161 1.98175 17.6485 1.95825 23.5 1.95825C29.3515 1.95825 30.0839 1.98371 32.3791 2.0875C34.6743 2.19129 36.2409 2.5575 37.6118 3.08821C39.0472 3.63067 40.3495 4.47863 41.4266 5.57529C42.5233 6.65042 43.3693 7.95075 43.9098 9.38817C44.4424 10.759 44.8067 12.3257 44.9124 14.6169C45.0182 16.918 45.0417 17.6504 45.0417 23.4999C45.0417 29.3514 45.0162 30.0838 44.9124 32.381C44.8086 34.6722 44.4424 36.2389 43.9098 37.6097C43.3692 39.0473 42.5218 40.3498 41.4266 41.4265C40.3495 42.5232 39.0472 43.3692 37.6118 43.9097C36.2409 44.4423 34.6743 44.8066 32.383 44.9123C30.0839 45.0181 29.3515 45.0416 23.5 45.0416C17.6485 45.0416 16.9161 45.0161 14.619 44.9123C12.3277 44.8085 10.7611 44.4423 9.39022 43.9097C7.95265 43.3691 6.65016 42.5217 5.57343 41.4265C4.4775 40.3507 3.62942 39.0489 3.0883 37.6117C2.55759 36.2408 2.19334 34.6742 2.08759 32.3829C1.98184 30.0819 1.95834 29.3495 1.95834 23.4999C1.95834 17.6484 1.9838 16.916 2.08759 14.6208C2.19139 12.3257 2.55759 10.759 3.0883 9.38817C3.63022 7.95091 4.47895 6.64907 5.57538 5.57334C6.65059 4.47765 7.95177 3.62958 9.38826 3.08821C10.7591 2.5575 12.3258 2.19325 14.617 2.0875H14.619ZM32.2048 5.965C29.9331 5.86121 29.2516 5.83967 23.5 5.83967C17.7484 5.83967 17.0669 5.86121 14.7952 5.965C12.6939 6.06096 11.5542 6.4115 10.7943 6.70721C9.78972 7.09888 9.07101 7.563 8.31705 8.31696C7.60235 9.01227 7.05232 9.85872 6.7073 10.7943C6.41159 11.5541 6.06105 12.6938 5.96509 14.7951C5.8613 17.0668 5.83976 17.7483 5.83976 23.4999C5.83976 29.2515 5.8613 29.933 5.96509 32.2047C6.06105 34.306 6.41159 35.4458 6.7073 36.2056C7.05197 37.1397 7.60226 37.9877 8.31705 38.6829C9.01226 39.3977 9.86022 39.948 10.7943 40.2926C11.5542 40.5883 12.6939 40.9389 14.7952 41.0348C17.0669 41.1386 17.7464 41.1602 23.5 41.1602C29.2536 41.1602 29.9331 41.1386 32.2048 41.0348C34.3061 40.9389 35.4458 40.5883 36.2057 40.2926C37.2103 39.901 37.929 39.4368 38.683 38.6829C39.3978 37.9877 39.9481 37.1397 40.2927 36.2056C40.5884 35.4458 40.939 34.306 41.0349 32.2047C41.1387 29.933 41.1603 29.2515 41.1603 23.4999C41.1603 17.7483 41.1387 17.0668 41.0349 14.7951C40.939 12.6938 40.5884 11.5541 40.2927 10.7943C39.9011 9.78963 39.4369 9.07092 38.683 8.31696C37.9876 7.60231 37.1412 7.05229 36.2057 6.70721C35.4458 6.4115 34.3061 6.06096 32.2048 5.965ZM20.7486 30.1406C22.2852 30.7803 23.9962 30.8666 25.5894 30.3849C27.1826 29.9031 28.5592 28.8832 29.4839 27.4993C30.4087 26.1154 30.8243 24.4534 30.6598 22.7971C30.4953 21.1408 29.7608 19.593 28.5819 18.418C27.8303 17.667 26.9216 17.0919 25.9212 16.7342C24.9207 16.3764 23.8533 16.245 22.796 16.3493C21.7386 16.4536 20.7175 16.791 19.8062 17.3373C18.8949 17.8836 18.1161 18.6251 17.5257 19.5085C16.9354 20.392 16.5483 21.3953 16.3923 22.4463C16.2362 23.4972 16.3152 24.5697 16.6234 25.5866C16.9316 26.6034 17.4615 27.5392 18.1748 28.3267C18.8881 29.1141 19.7671 29.7337 20.7486 30.1406ZM15.6706 15.6705C16.6988 14.6423 17.9194 13.8267 19.2628 13.2703C20.6061 12.7138 22.046 12.4275 23.5 12.4275C24.9541 12.4275 26.3939 12.7138 27.7373 13.2703C29.0806 13.8267 30.3013 14.6423 31.3294 15.6705C32.3576 16.6987 33.1732 17.9193 33.7296 19.2627C34.2861 20.606 34.5725 22.0459 34.5725 23.4999C34.5725 24.954 34.2861 26.3938 33.7296 27.7372C33.1732 29.0805 32.3576 30.3012 31.3294 31.3293C29.2529 33.4058 26.4366 34.5724 23.5 34.5724C20.5634 34.5724 17.7471 33.4058 15.6706 31.3293C13.5941 29.2528 12.4275 26.4365 12.4275 23.4999C12.4275 20.5633 13.5941 17.747 15.6706 15.6705ZM37.0282 14.0764C37.283 13.8361 37.4869 13.547 37.628 13.2265C37.7691 12.9059 37.8444 12.5602 37.8495 12.21C37.8546 11.8598 37.7894 11.5121 37.6577 11.1875C37.5261 10.8629 37.3306 10.5681 37.0829 10.3204C36.8353 10.0727 36.5404 9.87728 36.2158 9.7456C35.8913 9.61392 35.5436 9.5487 35.1934 9.55381C34.8431 9.55892 34.4975 9.63424 34.1769 9.77532C33.8563 9.91641 33.5673 10.1204 33.3269 10.3752C32.8595 10.8707 32.6036 11.5289 32.6135 12.21C32.6234 12.8911 32.8984 13.5416 33.3801 14.0232C33.8618 14.5049 34.5122 14.7799 35.1934 14.7898C35.8745 14.7998 36.5327 14.5439 37.0282 14.0764Z" fill="#2F2F2F"/>
</svg>
