<svg width="93" height="89" viewBox="0 0 93 89" fill="none" xmlns="http://www.w3.org/2000/svg">
<g clip-path="url(#clip0_0_62)">
<path d="M93 44.4999C93 49.191 86.3071 52.765 84.9347 56.9983C83.5104 61.3842 86.7768 68.2042 84.1204 71.8561C81.4396 75.5431 73.9309 74.5297 70.2437 77.2126C66.5946 79.871 65.2526 87.3441 60.87 88.7679C56.6399 90.1414 51.1838 84.9299 46.4977 84.9299C41.8116 84.9299 36.354 90.1429 32.1254 88.7679C27.7413 87.3441 26.3993 79.871 22.7517 77.2126C19.066 74.5297 11.5589 75.5431 8.87501 71.8561C6.2186 68.2042 9.48497 61.3842 8.06223 56.9983C6.69285 52.765 0 49.191 0 44.4999C0 39.8088 6.69285 36.2347 8.0668 32.0014C9.48955 27.614 6.22318 20.7955 8.87958 17.1437C11.5619 13.4552 19.0691 14.47 22.7563 11.7857C26.4039 9.12879 27.7458 1.65566 32.13 0.230313C36.3586 -1.14314 41.8147 4.06836 46.5023 4.06836C51.1899 4.06836 56.643 -1.14314 60.8731 0.230313C65.2557 1.65566 66.5976 9.12879 70.2467 11.7857C73.9309 14.47 81.4396 13.4552 84.1235 17.1437C86.7799 20.7955 83.5135 27.614 84.9378 32.0014C86.3102 36.2347 93 39.8088 93 44.4999Z" fill="#EF6E1C"/>
<path d="M87.3777 44.5001C87.3777 48.6205 81.4961 51.7657 80.2883 55.4877C79.0364 59.3441 81.9078 65.3385 79.5731 68.5478C77.2156 71.7891 70.6158 70.8979 67.3738 73.2572C64.1715 75.5936 62.9866 82.1633 59.1393 83.4147C55.4215 84.6233 50.6257 80.0421 46.5054 80.0421C42.385 80.0421 37.5892 84.6203 33.8714 83.4147C30.018 82.1633 28.8392 75.5936 25.6369 73.2572C22.398 70.8979 15.7981 71.7891 13.4376 68.5478C11.1045 65.3431 13.9743 59.3441 12.7224 55.4877C11.5162 51.7672 5.63306 48.6205 5.63306 44.5001C5.63306 40.3797 11.5162 37.2345 12.7224 33.5124C13.9743 29.6561 11.1045 23.6617 13.4376 20.4524C15.7951 17.2095 22.3949 18.1007 25.6369 15.7414C28.8392 13.4065 30.0241 6.83685 33.8714 5.58395C37.5892 4.37683 42.385 8.95807 46.5054 8.95807C50.6257 8.95807 55.42 4.37988 59.1393 5.58395C62.9912 6.83685 64.1715 13.4065 67.3738 15.7414C70.6127 18.1007 77.2126 17.2095 79.5731 20.4524C81.9078 23.6571 79.0364 29.6561 80.2883 33.5124C81.493 37.236 87.3777 40.3767 87.3777 44.5001Z" stroke="white" stroke-width="2" stroke-miterlimit="10"/>
<path d="M39.6783 26.343C39.9242 25.9203 40.0858 25.4539 40.154 24.9696C40.1759 24.8275 40.1759 24.6828 40.154 24.5407L40.1388 24.3988L40.122 24.2554C40.1178 24.158 40.0849 24.064 40.0275 23.9852C39.8566 23.9215 39.6813 23.8705 39.5029 23.8326L39.0454 23.7212L38.5696 23.6114L38.315 23.5625L38.0618 23.532C38.0199 23.527 37.9815 23.5059 37.9548 23.4732C37.9281 23.4405 37.915 23.3986 37.9185 23.3565C37.895 23.25 37.9062 23.1387 37.9505 23.0391C37.9572 23.0121 37.9711 22.9875 37.9907 22.9679C38.0103 22.9483 38.0349 22.9344 38.0618 22.9277L38.4263 22.7858L38.7908 22.6576C38.9547 22.598 39.0907 22.4794 39.172 22.3249C39.3419 22.0368 39.4548 21.7187 39.5044 21.3879C39.5151 21.2665 39.5151 21.1445 39.5044 21.0232L39.4571 20.6569L39.4099 20.4188L39.3458 20.1655L39.2985 20.0694L39.2513 19.99C39.0958 19.9892 38.9453 20.0454 38.8285 20.148C38.7116 20.2507 38.6363 20.3926 38.6169 20.547L38.5696 20.8156L38.5056 21.0857C38.4709 21.269 38.423 21.4496 38.3623 21.626C38.3211 21.7526 38.2418 21.8015 38.1244 21.7694L37.7752 21.658L37.4107 21.5619H37.3162C37.2773 21.5672 37.2378 21.5644 37.2002 21.5534C37.1625 21.5425 37.1276 21.5238 37.0977 21.4984C37.0677 21.4731 37.0435 21.4417 37.0265 21.4064C37.0095 21.371 37.0001 21.3325 36.999 21.2933C36.9587 20.8855 36.9797 20.4739 37.0615 20.0724C37.1082 19.8514 37.2164 19.6481 37.3738 19.486C37.5311 19.324 37.7311 19.2098 37.9505 19.1568C38.3513 19.0194 38.7864 19.0194 39.1872 19.1568C39.547 19.2747 39.9208 19.344 40.2989 19.3628C40.615 19.3625 40.924 19.4565 41.1864 19.6329C41.3198 19.7174 41.4339 19.8289 41.5214 19.9604C41.6089 20.0918 41.6677 20.2402 41.6942 20.3959C41.7642 20.6662 41.8072 20.9428 41.8223 21.2215C41.8314 21.343 41.8314 21.4649 41.8223 21.5863C41.7483 22.0616 41.6145 22.5256 41.4243 22.9674L41.5768 23.0467L41.7049 23.1261C41.7926 23.1712 41.8684 23.2366 41.926 23.3168L42.0053 23.4282L42.0846 23.5549C42.1955 23.7123 42.2862 23.883 42.3545 24.0631C42.5221 24.5213 42.5444 25.0201 42.4185 25.4915L42.3225 25.9203C42.2974 26.066 42.2607 26.2094 42.2127 26.3491C42.1026 26.7192 41.931 27.0679 41.7049 27.3807C41.5395 27.5935 41.3118 27.7493 41.0537 27.8264C40.8049 27.9097 40.55 27.9734 40.2913 28.0171C40.0777 28.0455 39.8605 28.0236 39.6569 27.953C39.1484 27.7958 38.6283 27.6789 38.1015 27.6035C37.8099 27.5479 37.5401 27.4103 37.3238 27.2068C37.1546 27.0267 37.044 26.7995 37.0066 26.5551C36.9098 26.1881 36.8722 25.8079 36.8953 25.4289C36.9026 25.3464 36.9243 25.2658 36.9593 25.1908C36.9787 25.1515 37.0078 25.1176 37.0438 25.0925C37.0798 25.0674 37.1216 25.0519 37.1652 25.0474C37.2241 25.0428 37.2824 25.032 37.339 25.0153H37.3878C37.4538 25.039 37.5237 25.0499 37.5937 25.0474H37.6882L37.7843 25.0626C37.9749 25.1161 38.2067 25.1695 38.4827 25.2153C38.5772 25.2283 38.6725 25.2339 38.7679 25.232C38.8231 25.2262 38.8789 25.2377 38.9272 25.2651C38.9756 25.2925 39.0143 25.3343 39.0378 25.3846C39.0961 25.4987 39.1338 25.6222 39.1491 25.7494L39.1903 25.9432L39.2223 26.1339C39.268 26.3013 39.3051 26.471 39.3336 26.6421C39.4802 26.5862 39.6022 26.4803 39.6783 26.343Z" fill="white"/>
<path d="M45.4683 23.0435L45.8023 23.0115L46.1347 22.9642C46.3589 22.9385 46.5859 22.9604 46.8011 23.0283C46.8403 22.9494 46.8571 22.8612 46.8499 22.7734C46.8391 22.6786 46.8391 22.5829 46.8499 22.4881L46.8652 22.2179L46.8331 21.7601L46.8011 21.3023C46.8011 21.165 46.7904 20.9467 46.7706 20.6507V19.9365C46.7603 19.716 46.8093 19.4968 46.9124 19.3016C46.934 19.2556 46.9727 19.2198 47.0203 19.2018C47.0678 19.1839 47.1205 19.1852 47.1671 19.2055L47.437 19.2848L47.6901 19.381C47.9583 19.4678 48.2348 19.5261 48.5151 19.555C48.5967 19.563 48.6743 19.5941 48.7388 19.6446C48.8033 19.6952 48.8522 19.763 48.8796 19.8403C49.0355 20.1799 49.1221 20.5473 49.1342 20.9208C49.1358 21.0233 49.1466 21.1254 49.1663 21.226L49.2135 21.5434C49.2881 21.989 49.3091 22.4419 49.2761 22.8925V24.0828L49.2928 24.6383V25.18L49.3081 25.5921V26.2116L49.3248 26.497L49.3401 26.7824V27.3394C49.3412 27.3716 49.336 27.4038 49.3248 27.434C49.3097 27.5216 49.283 27.6068 49.2456 27.6873C49.2189 27.7382 49.1808 27.782 49.1342 27.8155L49.0549 27.8781L48.9909 27.9269C48.9802 27.9361 48.9543 27.9269 48.9116 27.9102L48.8643 27.8949L48.817 27.8781C48.7957 27.8674 48.6996 27.8369 48.5304 27.7835L48.3245 27.7194L48.1507 27.6721L48.0714 27.64L47.9921 27.608C47.9449 27.5821 47.8931 27.566 47.8396 27.5607C47.7682 27.557 47.6981 27.541 47.6322 27.5134C47.5389 27.4922 47.4484 27.4605 47.3623 27.4188C47.1198 27.3226 46.9933 27.228 46.9826 27.1319C46.9139 26.7072 46.8873 26.2768 46.9033 25.8469C46.9141 25.7623 46.9141 25.6767 46.9033 25.5921L46.8865 25.3387L46.8713 24.8138L46.856 24.3056V24.1957L46.8392 24.0675C46.7892 24.0561 46.738 24.051 46.6867 24.0523L46.3375 24.037L45.9731 24.0202C45.8522 23.9989 45.7348 23.9614 45.6239 23.9088L45.5446 23.8768L45.45 23.8295C45.4165 23.9797 45.4001 24.1333 45.4012 24.2873V25.3326L45.386 25.9049V26.4924C45.3753 26.8526 45.3753 27.0846 45.386 27.1914C45.3853 27.2355 45.3743 27.2789 45.354 27.318L45.3067 27.46L45.2594 27.6507L45.1954 27.8583C45.1906 27.884 45.1803 27.9085 45.1654 27.93C45.1504 27.9515 45.131 27.9696 45.1085 27.983C45.086 27.9964 45.0609 28.0049 45.0348 28.0079C45.0088 28.0108 44.9824 28.0082 44.9575 28.0002C44.9133 27.9999 44.8699 27.9889 44.8309 27.9681C44.3384 27.7589 43.828 27.5944 43.306 27.4768C43.216 27.4536 43.1355 27.4029 43.0757 27.3318C43.0158 27.2607 42.9796 27.1727 42.972 27.08C42.9502 26.89 42.94 26.6989 42.9416 26.5077L42.9568 26.2223V25.937C42.9456 25.5015 42.9507 24.8555 42.972 23.9989L43.0208 23.158L43.0681 22.3156L43.0529 21.9829L43.0361 21.6655C43.0574 21.3054 43.0681 21.0246 43.0681 20.8231L43.0529 20.3317L43.0361 19.8556C43.0332 19.621 43.0547 19.3868 43.1001 19.1567C43.117 19.0973 43.1378 19.0392 43.1627 18.9827L43.2587 18.8301C43.3932 18.8544 43.5223 18.9025 43.64 18.972C43.6892 18.9971 43.7401 19.0185 43.7925 19.0361L43.9449 19.0681L44.0974 19.1155L44.2713 19.1475C44.3773 19.1705 44.4799 19.2075 44.5763 19.2574C44.6951 19.3113 44.826 19.3334 44.956 19.3215C45.1786 19.2787 45.3219 19.3795 45.3845 19.6267C45.4171 19.7018 45.4338 19.7829 45.4333 19.8647C45.4526 20.288 45.4627 20.6054 45.4638 20.817L45.4683 23.0435Z" fill="white"/>
<path d="M53.0839 28.1529L52.7789 28.0736L52.509 27.9942L52.2284 27.9271L51.9234 27.863L51.6382 27.7989C51.5422 27.779 51.4095 27.7577 51.2402 27.7363C50.9981 27.6939 50.7729 27.5838 50.5906 27.4189C50.3774 27.1983 50.2292 26.9232 50.1621 26.6238C50.0598 26.2488 49.9853 25.8668 49.9395 25.4808C49.8663 24.9416 49.8033 24.382 49.7504 23.8021L49.7184 23.3443L49.7123 22.891L49.7291 22.5736L49.7611 22.2562C49.8191 21.6704 49.9304 21.0912 50.0935 20.5256C50.1255 20.4204 50.1621 20.2983 50.2048 20.1609L50.3466 19.7794C50.4061 19.631 50.4984 19.4981 50.6168 19.3907C50.7352 19.2834 50.8764 19.2044 51.0298 19.1598C51.1609 19.1051 51.2882 19.0419 51.411 18.9706C51.5296 18.9145 51.6597 18.8873 51.7907 18.8912H51.9661L52.1567 18.9065C52.2735 18.9034 52.3902 18.9141 52.5044 18.9385L52.8231 18.9859C52.9236 19.0057 53.0257 19.0164 53.1281 19.0179L53.2074 19.0332L53.2714 19.0652L53.4239 19.0973L53.5657 19.1293C53.6494 19.155 53.7344 19.1759 53.8204 19.1919H53.8524L53.8677 19.2087C54.0218 19.2155 54.1749 19.2364 54.3251 19.2712L54.5478 19.3185L54.7689 19.3353C54.9326 19.3311 55.0942 19.3736 55.2346 19.4579C55.3751 19.5422 55.4886 19.6649 55.5619 19.8115L55.6899 20.0816L55.7997 20.3517L55.8638 20.4936L55.9278 20.6462C56.0428 20.9458 56.1072 21.2625 56.1185 21.5832C56.1591 22.3676 56.1749 22.9551 56.1657 23.3458C56.1561 24.1738 56.0278 24.9961 55.7845 25.7875C55.6406 26.2701 55.4096 26.7221 55.1029 27.1213L54.9275 27.3594L54.7369 27.6142C54.6905 27.6616 54.6394 27.704 54.5844 27.7409L54.4105 27.8523L54.2581 27.9316L54.1056 28.0262C53.8785 28.1463 53.6284 28.2165 53.3721 28.2323L53.0839 28.1529ZM52.8628 26.9946L52.942 26.9626C52.9827 26.9482 53.0205 26.9264 53.0534 26.8985C53.3347 26.6111 53.537 26.2557 53.6405 25.8669C53.735 25.316 53.8082 24.8673 53.8616 24.5178C53.898 24.2599 53.9194 24 53.9256 23.7395L53.9088 22.946C53.8982 22.6408 53.8829 22.3798 53.8616 22.1677L53.8143 21.7236C53.8097 21.5741 53.7939 21.4251 53.767 21.278C53.7355 21.068 53.6876 20.8609 53.6237 20.6584C53.581 20.5424 53.5078 20.3685 53.4011 20.135L53.3706 20.0556L53.3385 19.961C53.3041 19.9068 53.2614 19.8584 53.212 19.8176C52.924 20.1141 52.6976 20.4647 52.5456 20.8492C52.3341 21.5081 52.2061 22.191 52.1643 22.8819C52.1537 23.0032 52.1537 23.1253 52.1643 23.2466C52.1745 23.4796 52.2009 23.8291 52.2436 24.295C52.265 24.6236 52.2965 24.936 52.3382 25.232L52.4495 25.8989L52.5928 26.5658C52.6174 26.7375 52.6828 26.9008 52.7835 27.0419L52.8628 26.9946Z" fill="white"/>
<path d="M24.4871 45.3957C24.733 44.973 24.8946 44.5066 24.9628 44.0222C24.9848 43.8806 24.9848 43.7365 24.9628 43.5949L24.9476 43.4515L24.9308 43.308C24.9273 43.2105 24.8944 43.1163 24.8363 43.0379C24.6658 42.9744 24.491 42.9234 24.3132 42.8853L23.8557 42.7754L23.38 42.664L23.1253 42.6152L22.8722 42.5847C22.8302 42.5797 22.7919 42.5586 22.7651 42.5259C22.7384 42.4931 22.7254 42.4513 22.7288 42.4092C22.7053 42.3027 22.7165 42.1914 22.7609 42.0918C22.7675 42.0648 22.7814 42.0402 22.801 42.0206C22.8207 42.0009 22.8453 41.987 22.8722 41.9804L23.2366 41.8384L23.6011 41.7102C23.7653 41.651 23.9014 41.5323 23.9823 41.3776C24.1519 41.0892 24.2653 40.7712 24.3163 40.4406C24.327 40.3192 24.327 40.1972 24.3163 40.0758L24.2675 39.7096L24.2202 39.4715L24.1546 39.2197L24.1058 39.1251L24.0586 39.0442C23.9031 39.0437 23.7529 39.1 23.6361 39.2026C23.5193 39.3052 23.4439 39.447 23.4242 39.6012L23.3769 39.8698L23.3129 40.1399C23.2779 40.323 23.2305 40.5035 23.1711 40.6802C23.1284 40.8068 23.0491 40.8557 22.9316 40.8236L22.584 40.7122L22.218 40.6176H22.1234C22.0845 40.6227 22.045 40.6196 22.0073 40.6085C21.9697 40.5974 21.9348 40.5785 21.9049 40.5531C21.875 40.5276 21.8508 40.4961 21.8338 40.4607C21.8168 40.4253 21.8074 40.3867 21.8063 40.3475C21.7658 39.9397 21.7868 39.5281 21.8688 39.1266C21.9156 38.9056 22.024 38.7024 22.1813 38.5404C22.3386 38.3784 22.5384 38.2642 22.7578 38.211C23.1591 38.0736 23.5947 38.0736 23.996 38.211C24.355 38.3298 24.7285 38.3991 25.1062 38.417C25.4223 38.4167 25.7313 38.5107 25.9937 38.6871C26.1271 38.7716 26.2412 38.8831 26.3287 39.0146C26.4162 39.146 26.475 39.2944 26.5015 39.4501C26.5723 39.7202 26.6152 39.9969 26.6296 40.2758C26.6387 40.3972 26.6387 40.5191 26.6296 40.6405C26.5553 41.1155 26.4221 41.5795 26.2331 42.0216L26.3856 42.1009L26.5121 42.1803C26.5998 42.2262 26.6759 42.2914 26.7348 42.371L26.8141 42.4824L26.8934 42.6091C27.0034 42.7668 27.0935 42.9375 27.1618 43.1173C27.3293 43.5755 27.3517 44.0743 27.2258 44.5457L27.1313 44.9745C27.1051 45.1201 27.0679 45.2634 27.0199 45.4033C26.9102 45.7735 26.7385 46.1223 26.5121 46.4349C26.3468 46.6477 26.1191 46.8035 25.861 46.8806C25.6122 46.9639 25.3573 47.0276 25.0986 47.0713C24.885 47.0997 24.6678 47.0778 24.4642 47.0072C23.9558 46.8498 23.4357 46.7329 22.9088 46.6577C22.6173 46.6018 22.3476 46.4642 22.1311 46.261C21.9619 46.0809 21.8513 45.8537 21.8139 45.6093C21.717 45.2423 21.6794 44.8621 21.7026 44.4831C21.7099 44.4006 21.7315 44.32 21.7666 44.245C21.786 44.2056 21.815 44.1718 21.8511 44.1467C21.8871 44.1216 21.9288 44.1061 21.9725 44.1016C22.0319 44.0969 22.0906 44.0861 22.1478 44.0695H22.1951C22.2611 44.093 22.331 44.1039 22.401 44.1016H22.497L22.5916 44.1168C22.7822 44.1703 23.014 44.2237 23.29 44.2695C23.3845 44.2825 23.4798 44.2881 23.5752 44.2862C23.6304 44.2804 23.6861 44.2919 23.7345 44.3193C23.7829 44.3467 23.8216 44.3885 23.8451 44.4388C23.9041 44.5526 23.9418 44.6762 23.9564 44.8036L23.9884 44.9943L24.0189 45.1851C24.0646 45.3525 24.1017 45.5221 24.1302 45.6933C24.2811 45.6402 24.4077 45.5346 24.4871 45.3957Z" fill="white"/>
<path d="M36.0368 39.5525C36.0942 39.7108 36.1266 39.8771 36.1329 40.0454V40.5383L36.1161 40.871C36.1053 40.9872 36.1053 41.1042 36.1161 41.2205C36.1481 41.7067 36.1481 42.1946 36.1161 42.6809C36.0943 43.0145 36.0999 43.3493 36.1329 43.682C36.1435 43.8193 36.1481 43.9872 36.1481 44.1734L36.1405 44.4084V44.6633C36.1405 44.9491 36.1507 45.3881 36.171 45.9803C36.1691 46.0107 36.1735 46.0412 36.1838 46.07C36.1942 46.0987 36.2102 46.125 36.2311 46.1473C36.2519 46.1696 36.2771 46.1874 36.305 46.1996C36.333 46.2118 36.3631 46.2182 36.3936 46.2183L36.6986 46.2824L36.9838 46.3297C37.1363 46.3511 37.1851 46.435 37.1363 46.5846L37.1042 46.6792L37.057 46.8059C36.9738 46.8245 36.889 46.8352 36.8038 46.8379C36.6757 46.8486 36.4867 46.8532 36.232 46.8532C36.1965 46.8531 36.1614 46.86 36.1287 46.8736C36.096 46.8873 36.0663 46.9073 36.0414 46.9325C35.9987 46.9966 35.9301 47.0073 35.8355 46.9646C35.7339 46.9067 35.6199 46.8742 35.5031 46.87H34.2831C34.1711 46.8557 34.06 46.8343 33.9507 46.8059L33.4429 46.6532L32.9199 46.5098C32.8919 46.5044 32.865 46.494 32.8406 46.4793V46.3923L32.8238 46.3282C32.8227 46.2966 32.8282 46.2652 32.8397 46.2359C32.8513 46.2065 32.8688 46.1798 32.8911 46.1575C32.9134 46.1352 32.9401 46.1177 32.9694 46.1061C32.9988 46.0945 33.0302 46.0891 33.0617 46.0901C33.2142 46.0688 33.4475 46.0474 33.7449 46.026C33.7449 45.762 33.7449 45.5682 33.7281 45.4385V45.0265L33.7128 44.6129L33.6961 43.8041L33.6808 42.9938C33.67 42.8138 33.67 42.6334 33.6808 42.4535L33.6961 42.2002L33.7128 41.9301V40.1888C33.7178 39.923 33.702 39.6572 33.6656 39.3938C33.6528 39.3048 33.6472 39.215 33.6488 39.1252L33.6335 38.9726V38.82L33.5222 38.7894L33.3789 38.7406L32.8086 38.5987C32.7338 38.588 32.6972 38.5407 32.6972 38.4552C32.6759 38.3179 32.7232 38.2385 32.8406 38.2172C32.9698 38.1804 33.1029 38.1589 33.2371 38.1531L33.9187 38.1699L34.5851 38.1851L35.1081 38.2172L35.6159 38.2492C35.7871 38.2692 35.9568 38.3008 36.1237 38.3438L36.3616 38.4232L36.5995 38.5025C36.7594 38.5509 36.9251 38.5776 37.092 38.5819C37.1362 38.5824 37.1796 38.5933 37.2186 38.6139C37.3238 38.6353 37.3833 38.6567 37.394 38.678C37.4046 38.6994 37.394 38.7513 37.3452 38.8306V38.9146C37.3485 38.9365 37.347 38.9588 37.3409 38.98C37.3347 39.0013 37.324 39.0209 37.3095 39.0376C37.295 39.0543 37.277 39.0676 37.2569 39.0767C37.2367 39.0858 37.2148 39.0903 37.1927 39.0901H37.0554L36.0719 39.0412C36.0495 39.0418 36.0276 39.0475 36.0078 39.058C35.9754 39.2226 35.9853 39.3928 36.0368 39.5525Z" fill="white"/>
<path d="M40.4789 40.2881C40.4362 40.4407 40.395 40.6315 40.3523 40.8436L40.2578 41.3991C40.2258 41.7104 40.2095 42.0232 40.209 42.3361V43.2884C40.2129 43.727 40.264 44.164 40.3615 44.5916C40.4062 44.8329 40.4647 45.0713 40.5368 45.3058L40.5841 45.4584L40.6314 45.6324C40.6675 45.7491 40.7272 45.8571 40.8067 45.9498C40.8891 45.8942 40.9557 45.8181 41.0001 45.7291C41.0445 45.64 41.065 45.541 41.0599 45.4416L41.0919 45.0769L41.1071 44.7275V43.9019C41.1079 43.8435 41.1135 43.7853 41.1239 43.7279L41.1559 43.5524C41.1773 43.4578 41.2291 43.4211 41.3084 43.441H41.4502C41.4936 43.4398 41.5368 43.4455 41.5783 43.4578C41.7034 43.5166 41.8374 43.5542 41.9748 43.5692L42.3713 43.6485C42.4976 43.6665 42.6249 43.6772 42.7525 43.6806C42.8153 43.6829 42.8756 43.7059 42.9241 43.7458C42.9726 43.7858 43.0066 43.8406 43.0209 43.9019C43.0324 43.9519 43.038 44.0031 43.0377 44.0545C42.995 44.732 42.9736 45.2407 42.9736 45.5805C42.9603 45.7245 42.9394 45.8676 42.9111 46.0093L42.8471 46.2322L42.7998 46.4382C42.7571 46.5908 42.6991 46.6762 42.6244 46.7083C42.6244 46.719 42.6244 46.7235 42.6092 46.7235C42.4506 46.9881 42.1227 47.1407 41.6256 47.1814C41.4926 47.1908 41.3589 47.18 41.2291 47.1493L41.0385 47.102L40.8677 47.0639L40.2013 46.9113L39.5502 46.7678C39.3673 46.7307 39.191 46.6664 39.0272 46.577C38.7991 46.4317 38.613 46.2291 38.4873 45.9895C38.3019 45.6985 38.1577 45.3832 38.0588 45.0525C38.0125 44.9405 37.9808 44.8231 37.9643 44.703L37.9323 44.5138L37.9002 44.3383C37.8103 43.9261 37.7628 43.5058 37.7584 43.0839V42.4643L37.7737 41.8295C37.7946 41.3642 37.8584 40.9019 37.9643 40.4484C38.0275 40.0996 38.112 39.7551 38.2174 39.4168C38.3418 39.0712 38.5425 38.7583 38.8045 38.5011C38.9637 38.3322 39.1686 38.2134 39.3942 38.1592C39.6198 38.105 39.8563 38.1178 40.0748 38.1959C40.3658 38.2837 40.6623 38.3525 40.9623 38.4019C41.071 38.4325 41.1833 38.4484 41.2962 38.4492C41.4942 38.4358 41.6923 38.4723 41.8724 38.5555C42.0526 38.6387 42.2089 38.7659 42.3271 38.9254C42.3734 38.9693 42.4158 39.0174 42.4536 39.0688C42.7607 39.3888 42.9318 39.8155 42.9309 40.2591C42.9402 40.5919 42.897 40.9241 42.8028 41.2435C42.798 41.2671 42.7883 41.2895 42.7742 41.3092C42.7601 41.3288 42.742 41.3452 42.7211 41.3573C42.7002 41.3694 42.677 41.377 42.6529 41.3794C42.6289 41.3819 42.6046 41.3792 42.5817 41.3716L42.2767 41.2755L41.9718 41.1961L41.8452 41.1809H41.7019C41.6424 41.1826 41.5837 41.167 41.5331 41.1358C41.4824 41.1046 41.4419 41.0593 41.4167 41.0054L41.3054 40.7841L41.1788 40.5613C41.0912 40.4092 41.0167 40.2499 40.9562 40.0852L40.8616 39.8944L40.7503 39.6884C40.626 39.8712 40.5342 40.0741 40.4789 40.2881Z" fill="white"/>
<path d="M44.9057 39.2351L44.5885 39.2198L44.2835 39.2046L44.1889 39.1878L44.0929 39.1557C43.7461 39.0401 43.3884 38.9603 43.0254 38.9177C42.8257 38.907 42.7662 38.7971 42.8516 38.585C42.8683 38.5246 42.9032 38.4708 42.9514 38.431C42.9997 38.3911 43.0591 38.3671 43.1215 38.3622C43.4387 38.3194 43.6811 38.2889 43.8504 38.2676L44.1203 38.2355L44.3902 38.2035L45.0093 38.1714L45.6193 38.1394C45.842 38.1302 46.1744 38.1394 46.6197 38.1562C46.7745 38.175 46.9275 38.2067 47.0771 38.2508C47.5357 38.3905 48.0103 38.4705 48.4892 38.4888C48.5704 38.5091 48.65 38.5356 48.7271 38.5682C48.7405 38.5716 48.753 38.5777 48.764 38.5861C48.775 38.5945 48.7843 38.605 48.7911 38.617C48.7969 38.6303 48.7985 38.6449 48.7957 38.6591C48.793 38.6732 48.7861 38.6862 48.7759 38.6964C48.7616 38.7043 48.7496 38.7157 48.7411 38.7296C48.7325 38.7435 48.7277 38.7594 48.7271 38.7757V38.8703C48.7586 39.0504 48.6793 39.1405 48.4892 39.1405L47.9509 39.1084L47.4111 39.0932L47.1732 39.1084L46.9033 39.1252L46.9673 39.3465L47.0299 39.5845C47.1347 39.9639 47.2041 40.3522 47.2372 40.7444L47.2677 41.0145L47.2845 41.2998L47.3165 41.7912L47.3318 42.2994L47.347 42.4749V42.6489L47.3958 43.4272L47.4263 44.1902L47.4751 44.8266L47.5056 45.437C47.5258 45.7066 47.5314 45.9771 47.5224 46.2473C47.4887 46.4943 47.4377 46.7385 47.3699 46.9783C47.3059 47.1996 47.1839 47.2637 47.0039 47.1676C46.8618 47.1013 46.713 47.0501 46.5602 47.0149L46.3223 46.9676L46.0997 46.9203L45.8145 46.8562L45.5095 46.8089C45.3098 46.7876 45.2045 46.7036 45.1923 46.5556C45.1534 46.3457 45.1269 46.1338 45.113 45.9208C45.0917 45.6552 45.0719 45.2691 45.0505 44.761L44.9544 43.6652V43.3158L44.9392 42.9663V42.3635L44.9224 41.7531C44.9116 41.5411 44.9116 41.3287 44.9224 41.1167V40.0134L44.9072 39.5372L44.9057 39.2351Z" fill="white"/>
<path d="M52.4098 47.2056L52.1049 47.1263L51.835 47.0469L51.5483 46.9843L51.2433 46.9202L50.9581 46.8562C50.8621 46.8363 50.7294 46.8149 50.5601 46.7936C50.318 46.7512 50.0928 46.6411 49.9105 46.4762C49.6973 46.2556 49.549 45.9805 49.482 45.6811C49.3796 45.3061 49.3052 44.9241 49.2594 44.5381C49.1862 43.9989 49.1226 43.4393 49.0688 42.8594L49.0383 42.4016L49.0215 41.956L49.0383 41.6385L49.0688 41.3211C49.1293 40.7332 49.2426 40.152 49.4073 39.5845C49.4393 39.4792 49.4759 39.3571 49.5186 39.2197L49.6604 38.8382C49.7196 38.6897 49.812 38.5567 49.9304 38.4493C50.0487 38.3419 50.1901 38.263 50.3436 38.2186C50.4743 38.1642 50.6011 38.101 50.7233 38.0294C50.8424 37.9735 50.973 37.9463 51.1045 37.95H51.2799L51.469 37.9653C51.5862 37.9621 51.7035 37.9729 51.8182 37.9974L52.1354 38.0447C52.2359 38.0644 52.3379 38.0751 52.4403 38.0767L52.5196 38.092L52.5837 38.124L52.7362 38.1561L52.878 38.1881C52.9616 38.214 53.0466 38.2349 53.1327 38.2507H53.1647L53.1799 38.2675C53.334 38.2743 53.4871 38.2952 53.6374 38.33L53.8585 38.3789L54.0812 38.3941C54.2449 38.3899 54.4064 38.4324 54.5469 38.5167C54.6873 38.601 54.8008 38.7237 54.8741 38.8703L55.0022 39.1404L55.112 39.4105L55.176 39.5524L55.2401 39.705C55.355 40.0046 55.4194 40.3213 55.4307 40.642C55.4714 41.4264 55.4871 42.014 55.478 42.4046C55.4684 43.2326 55.34 44.0549 55.0967 44.8463C54.9529 45.3289 54.7219 45.7809 54.4151 46.1801L54.2397 46.4182L54.0491 46.673C54.0025 46.7201 53.9514 46.7625 53.8966 46.7997L53.7228 46.9111L53.5703 46.9904L53.4178 47.0851C53.1956 47.1971 52.9526 47.262 52.7042 47.2758L52.4098 47.2056ZM52.1887 46.0473L52.268 46.0153C52.3085 46.0013 52.3458 45.9795 52.3778 45.9512C52.6603 45.6646 52.8627 45.3089 52.9649 44.9196C53.061 44.3687 53.1342 43.92 53.1876 43.5705C53.224 43.3126 53.2454 43.0527 53.2516 42.7922L53.2348 41.9987C53.2242 41.6935 53.2089 41.4325 53.1876 41.2204L53.1403 40.7763C53.1357 40.6268 53.1199 40.4778 53.093 40.3307C53.0615 40.1207 53.0136 39.9136 52.9497 39.7111C52.907 39.5951 52.8338 39.4212 52.727 39.1877L52.6965 39.1083L52.6645 39.0137C52.6301 38.9595 52.5874 38.9111 52.5379 38.8703C52.2495 39.1664 52.023 39.5171 51.8716 39.9019C51.6594 40.5607 51.5313 41.2437 51.4903 41.9346C51.4796 42.0559 51.4796 42.178 51.4903 42.2993C51.5005 42.5323 51.5269 42.8818 51.5696 43.3477C51.591 43.6753 51.6225 43.9877 51.6642 44.2847L51.7755 44.9516L51.9188 45.6185C51.9434 45.7902 52.0088 45.9535 52.1094 46.0946L52.1887 46.0473Z" fill="white"/>
<path d="M58.4713 44.4908V44.6815C58.469 44.7982 58.4741 44.915 58.4866 45.031L58.5018 45.0783V45.1104C58.4801 45.2366 58.4801 45.3656 58.5018 45.4919L58.5186 45.6811L58.5338 45.8719L58.5659 46.2534L58.5979 46.6502C58.591 46.7949 58.5695 46.9386 58.5338 47.079C58.5125 47.1629 58.4973 47.2316 58.4866 47.285C58.4243 47.3213 58.3541 47.3418 58.282 47.3447C58.21 47.3477 58.1384 47.3329 58.0733 47.3018C57.9601 47.2521 57.844 47.2093 57.7256 47.1736L57.535 47.1431L57.3444 47.0943L57.1065 47.0317L56.8686 46.9676L56.7726 46.9523L56.678 46.9355L56.5027 46.905L56.3288 46.8882C56.2799 46.8805 56.2355 46.8555 56.2035 46.8176C56.1716 46.7798 56.1544 46.7317 56.155 46.6822C56.1336 46.1735 56.0909 45.4105 56.0269 44.3931C55.9852 43.4195 55.9537 42.6839 55.9323 42.1864C55.9217 41.8995 55.9049 41.46 55.8851 40.8679C55.8851 40.7153 55.8744 40.4864 55.853 40.169C55.8317 39.5128 55.8159 39.0153 55.8058 38.6765C55.7924 38.605 55.7939 38.5315 55.8102 38.4606C55.8264 38.3897 55.8571 38.3229 55.9003 38.2645C55.975 38.1576 56.0528 38.1271 56.1382 38.1683C56.2194 38.2108 56.3101 38.2317 56.4017 38.229C56.4933 38.2263 56.5827 38.2002 56.6613 38.153C56.7257 38.1212 56.7968 38.105 56.8686 38.1057L57.5823 38.1363L58.296 38.1851C58.4154 38.2043 58.5324 38.236 58.6452 38.2797L58.819 38.327L58.9944 38.3759L59.3436 38.4064L59.6928 38.4552C60.0613 38.4932 60.4096 38.6422 60.6916 38.8825C60.785 38.9831 60.865 39.0955 60.9295 39.2167C61.0778 39.5158 61.1747 39.8377 61.2162 40.169L61.2634 40.4391L61.3107 40.7092C61.3414 40.8875 61.3522 41.0687 61.3427 41.2494C61.3418 41.467 61.326 41.6842 61.2955 41.8995C61.2101 42.3665 61.143 42.7099 61.0881 42.9327C61.0595 43.0483 61.017 43.16 60.9615 43.2654L60.8822 43.4393L60.8029 43.5996C60.7666 43.7079 60.7153 43.8107 60.6504 43.9048L60.5559 44.0482L60.4598 44.1749C60.364 44.3063 60.2226 44.3972 60.0633 44.4297C59.7462 44.4709 59.5022 44.4984 59.3329 44.5091C59.1945 44.5137 59.0574 44.4804 58.9364 44.413C58.8695 44.3869 58.8007 44.366 58.7306 44.3504L58.604 44.3183L58.4607 44.2863L58.4713 44.4908ZM58.5506 42.6809L58.6452 42.5069C58.7637 42.2633 58.8336 41.999 58.851 41.7286C58.9266 41.2237 58.9481 40.7121 58.9151 40.2025C58.9147 39.8531 58.8633 39.5055 58.7626 39.1709C58.7509 39.1268 58.7351 39.0839 58.7153 39.0427C58.6999 39.0072 58.6716 38.9788 58.636 38.9634C58.5604 38.9402 58.4828 38.9238 58.4042 38.9146L58.1816 38.8993C58.1918 38.9939 58.2024 39.0956 58.2136 39.2045L58.2289 39.4899L58.3249 40.6802L58.3402 41.109V41.5531C58.3615 42.0822 58.3778 42.4738 58.389 42.7282C58.3984 42.7808 58.4142 42.8321 58.4363 42.8808L58.5506 42.6809Z" fill="white"/>
<path d="M64.9919 39.5525C65.0479 39.7111 65.0798 39.8773 65.0865 40.0454V40.5383L65.0712 40.871C65.0604 40.9872 65.0604 41.1042 65.0712 41.2205C65.1017 41.7068 65.1017 42.1946 65.0712 42.6809C65.049 43.0145 65.0541 43.3493 65.0865 43.682C65.0971 43.8193 65.1017 43.9872 65.1017 44.1734L65.0865 44.4115V44.6663C65.0865 44.9522 65.0971 45.3912 65.1185 45.9833C65.1164 46.0138 65.1206 46.0444 65.1308 46.0733C65.1411 46.1021 65.1571 46.1285 65.178 46.1508C65.1989 46.1732 65.2242 46.1909 65.2522 46.2031C65.2803 46.2152 65.3105 46.2214 65.3411 46.2214L65.6461 46.2855L65.9328 46.3328C66.0853 46.3541 66.1325 46.4381 66.0853 46.5876L66.0532 46.6822L66.006 46.8089C65.9223 46.8275 65.837 46.8383 65.7513 46.841C65.6247 46.8516 65.4341 46.8562 65.1795 46.8562C65.1442 46.856 65.1093 46.8629 65.0768 46.8765C65.0443 46.8902 65.0149 46.9102 64.9904 46.9356C64.9477 46.9997 64.8791 47.0103 64.783 46.9676C64.6815 46.9096 64.5674 46.8771 64.4506 46.873H63.2306C63.1181 46.8586 63.0065 46.8372 62.8967 46.8089L62.3889 46.6563L61.8658 46.5129C61.8379 46.5072 61.8111 46.4968 61.7865 46.4823V46.3923L61.7713 46.3282C61.77 46.2966 61.7753 46.2651 61.7868 46.2356C61.7983 46.2061 61.8157 46.1794 61.8381 46.157C61.8604 46.1346 61.8872 46.1171 61.9166 46.1056C61.9461 46.0941 61.9776 46.0888 62.0092 46.0901C62.1678 46.0688 62.395 46.0474 62.6908 46.026C62.6908 45.762 62.6908 45.5682 62.6756 45.4385V45.0265L62.6588 44.6129L62.6435 43.8041L62.6268 42.9938C62.616 42.8138 62.616 42.6334 62.6268 42.4535L62.6435 42.2002L62.6588 41.9301V40.1888C62.6646 39.923 62.6487 39.6571 62.6115 39.3938C62.5995 39.3048 62.5944 39.215 62.5963 39.1252L62.5795 38.9726V38.82L62.4682 38.7894L62.3264 38.7406L61.7545 38.5987C61.7376 38.597 61.7212 38.5919 61.7064 38.5837C61.6915 38.5755 61.6785 38.5643 61.668 38.5509C61.6576 38.5375 61.65 38.5221 61.6458 38.5056C61.6415 38.4892 61.6406 38.472 61.6432 38.4552C61.6218 38.3179 61.6706 38.2385 61.7865 38.2172C61.9158 38.1806 62.0488 38.1591 62.183 38.1531L62.8646 38.1699L63.531 38.1851L64.0556 38.2172L64.5634 38.2492C64.7346 38.2692 64.9043 38.3008 65.0712 38.3438L65.3091 38.4232L65.547 38.5025C65.7064 38.5509 65.8715 38.5776 66.038 38.5819C66.0826 38.5824 66.1265 38.5933 66.1661 38.6139C66.2677 38.6353 66.3257 38.6567 66.3399 38.678C66.3506 38.6994 66.3399 38.7513 66.2927 38.8306V38.9146C66.296 38.9365 66.2945 38.9588 66.2883 38.98C66.2822 39.0013 66.2715 39.0209 66.257 39.0376C66.2425 39.0543 66.2245 39.0676 66.2043 39.0767C66.1842 39.0858 66.1623 39.0903 66.1402 39.0901H66.0136L65.0285 39.0412C65.0066 39.0419 64.9852 39.0477 64.966 39.058C64.9318 39.2223 64.9407 39.3927 64.9919 39.5525Z" fill="white"/>
<path d="M69.9937 39.5524C70.0497 39.711 70.0815 39.8772 70.0882 40.0453V40.5382L70.0729 40.8709C70.0622 40.9872 70.0622 41.1041 70.0729 41.2204C70.105 41.7067 70.105 42.1945 70.0729 42.6808C70.0507 43.0144 70.0558 43.3492 70.0882 43.6819C70.0989 43.8193 70.105 43.9871 70.105 44.1733L70.0882 44.4114V44.6662C70.0882 44.9521 70.0989 45.3911 70.1202 45.9832C70.1181 46.0137 70.1223 46.0444 70.1326 46.0732C70.1428 46.102 70.1589 46.1284 70.1798 46.1507C70.2007 46.1731 70.2259 46.1909 70.254 46.203C70.282 46.2151 70.3123 46.2214 70.3429 46.2213L70.6478 46.2854L70.9345 46.3327C71.087 46.3541 71.1343 46.438 71.087 46.5875L71.055 46.6822L71.0077 46.8088C70.924 46.8274 70.8388 46.8382 70.7531 46.8409C70.6265 46.8516 70.4359 46.8561 70.1827 46.8561C70.1472 46.8557 70.112 46.8625 70.0793 46.8761C70.0465 46.8898 70.0168 46.91 69.9921 46.9355C69.9494 46.9996 69.8808 47.0103 69.7863 46.9675C69.6841 46.9097 69.5696 46.8773 69.4523 46.8729H68.2324C68.1198 46.8585 68.0083 46.8371 67.8984 46.8088L67.3906 46.6562L66.8676 46.5128C66.8396 46.5071 66.8128 46.4968 66.7883 46.4822V46.3922L66.773 46.3281C66.772 46.2966 66.7774 46.2651 66.789 46.2358C66.8006 46.2064 66.818 46.1797 66.8403 46.1574C66.8626 46.1351 66.8893 46.1176 66.9186 46.106C66.948 46.0944 66.9794 46.089 67.0109 46.09C67.1695 46.0687 67.3967 46.0473 67.6926 46.026C67.6926 45.7619 67.6926 45.5681 67.6773 45.4384V45.0264L67.6605 44.6128L67.6453 43.804L67.63 42.9937C67.6193 42.8138 67.6193 42.6334 67.63 42.4534L67.6453 42.2001L67.6605 41.93V40.1888C67.6663 39.9229 67.6505 39.657 67.6133 39.3937C67.6012 39.3047 67.5961 39.2149 67.598 39.1251L67.5812 38.9725V38.8199L67.4714 38.7894L67.3281 38.7405L66.7563 38.5986C66.6831 38.5879 66.6465 38.5406 66.6465 38.4552C66.6251 38.3178 66.6724 38.2385 66.7883 38.2171C66.9175 38.1805 67.0506 38.159 67.1848 38.153L67.8588 38.1515L68.5252 38.1667L69.0482 38.1988L69.556 38.2308C69.7272 38.2508 69.8969 38.2824 70.0638 38.3254L70.3017 38.4048L70.5396 38.4842C70.699 38.5325 70.8641 38.5592 71.0306 38.5635C71.0752 38.564 71.1191 38.5749 71.1587 38.5956C71.2603 38.6169 71.3183 38.6383 71.3325 38.6596C71.3432 38.681 71.3325 38.7329 71.2853 38.8123V38.9145C71.2886 38.9364 71.2871 38.9587 71.2809 38.98C71.2748 39.0012 71.2641 39.0208 71.2496 39.0375C71.2351 39.0542 71.2171 39.0676 71.1969 39.0766C71.1768 39.0857 71.1549 39.0902 71.1328 39.09H71.0062L70.0226 39.0412C70.0003 39.0417 69.9783 39.0474 69.9586 39.058C69.9273 39.223 69.9394 39.3934 69.9937 39.5524ZM67.9899 36.3202L68.1805 36.3675C68.3589 36.4038 68.5391 36.4303 68.7203 36.4469C68.7503 36.4444 68.7803 36.4494 68.8079 36.4614C68.8354 36.4734 68.8596 36.4919 68.8783 36.5154C68.897 36.539 68.9096 36.5667 68.915 36.5963C68.9205 36.6258 68.9185 36.6563 68.9094 36.6849L68.8789 36.9077L68.8301 37.1458C68.7844 37.3039 68.697 37.4468 68.577 37.5594L68.3391 37.5105L68.1012 37.4632L67.9259 37.4159L67.752 37.3686C67.6407 37.357 67.5384 37.3022 67.4669 37.216L67.5141 36.9779L67.5614 36.7383C67.5952 36.5661 67.6778 36.4071 67.7993 36.2805L67.9899 36.3202ZM70.259 37.654C70.2465 37.6593 70.233 37.6621 70.2193 37.6621C70.2057 37.6621 70.1922 37.6593 70.1797 37.654C70.0516 37.6219 69.9037 37.5792 69.7344 37.5273L69.2586 37.3839L69.2266 37.3686H69.1793C69.1405 37.3562 69.1076 37.3299 69.087 37.2946C69.0665 37.2594 69.0597 37.2178 69.068 37.1778L69.1001 36.9718L69.1321 36.7811C69.1691 36.6408 69.2531 36.5175 69.37 36.4316C69.4752 36.453 69.6399 36.485 69.8625 36.5262L70.1156 36.5735L70.3856 36.6224C70.4149 36.6572 70.437 36.6975 70.4507 36.741C70.4643 36.7845 70.4691 36.8303 70.4648 36.8757C70.4736 37.1409 70.4306 37.4052 70.3383 37.654H70.259Z" fill="white"/>
<path d="M25.1214 57.2731C25.1829 57.2535 25.248 57.2478 25.312 57.2563C25.593 57.3525 25.8873 57.404 26.1843 57.4089C26.2538 57.4111 26.3208 57.4353 26.3756 57.4781C26.4304 57.5209 26.4702 57.5801 26.4893 57.647C26.7424 58.2818 26.9381 58.7529 27.0763 59.0601L27.3463 59.7117L27.6314 60.3786L27.6634 60.4412L27.7107 60.5205C27.7427 60.4366 27.7793 60.3466 27.822 60.252L27.9166 60.0139L28.2658 59.0601L28.615 58.1231C28.6832 57.9307 28.7684 57.7448 28.8696 57.5676C28.9081 57.4713 28.9675 57.3848 29.0435 57.3143L29.1548 57.2182L29.2814 57.1235C29.668 57.2432 30.0671 57.3179 30.4708 57.3463C30.5358 57.3431 30.6007 57.3535 30.6614 57.3769C30.6978 57.3835 30.7324 57.3977 30.763 57.4186C30.7935 57.4395 30.8193 57.4665 30.8388 57.4981C30.8582 57.5296 30.8707 57.5648 30.8757 57.6015C30.8806 57.6382 30.8777 57.6755 30.8673 57.7111C30.7639 58.4159 30.6048 59.1114 30.3915 59.7911C30.3183 60.0139 30.1968 60.3471 30.0271 60.7907L29.9798 60.9982L29.9157 61.1874L29.6626 61.9184L29.3927 62.6326C29.3128 62.8134 29.2441 62.9989 29.1868 63.1881L29.0908 63.475L28.9962 63.7451L28.8056 64.2533L28.615 64.7767C28.4931 65.1185 28.35 65.4524 28.1865 65.7763C28.1026 65.9564 27.9852 66.0098 27.8373 65.9289C27.698 65.8579 27.5481 65.81 27.3935 65.787L27.1709 65.7397L26.9498 65.6909L26.7271 65.6283L26.4893 65.5795L26.3459 65.5489L26.2041 65.5321C26.0867 65.5108 26.0394 65.4589 26.0608 65.3795C26.0584 65.2668 26.0744 65.1545 26.108 65.0469C26.1827 64.8561 26.2514 64.6913 26.3139 64.5539C26.3735 64.4044 26.4244 64.2515 26.4664 64.0961L26.6097 63.62L26.7058 63.3667L26.8003 63.1118L26.9117 62.7791L27.023 62.4617C27.0335 62.4305 27.0375 62.3974 27.0346 62.3646C27.0317 62.3317 27.022 62.2998 27.0062 62.2709C26.8588 61.9851 26.6473 61.5456 26.3718 60.9524L26.0669 60.3023L25.7619 59.6507L25.5713 59.1425L25.3806 58.6511C25.2667 58.3083 25.1765 57.958 25.1107 57.6027C25.1008 57.5523 25.1008 57.5005 25.1107 57.4501L25.1214 57.2731Z" fill="white"/>
<path d="M31.087 58.3993L31.1342 58.0667L31.1663 57.7492L31.1983 57.444C31.2105 57.3654 31.2374 57.2898 31.2776 57.2212C31.2863 57.1833 31.3034 57.1479 31.3277 57.1176C31.352 57.0873 31.3828 57.0629 31.4178 57.0461C31.4529 57.0294 31.4912 57.0208 31.5301 57.021C31.5689 57.0212 31.6072 57.0302 31.642 57.0472C32.0925 57.2007 32.5633 57.2861 33.0389 57.3006C33.324 57.3219 33.478 57.4654 33.4963 57.7294C33.5177 57.882 33.5345 58.0682 33.5451 58.3017L33.5772 58.8892C33.597 59.2066 33.6138 59.4508 33.6244 59.6187C33.6656 59.5988 33.687 59.582 33.687 59.5714L34.0362 59.0952L34.3701 58.6191C34.7045 58.1401 35.0702 57.6838 35.465 57.2533C35.5168 57.1935 35.5864 57.152 35.6636 57.1349C35.7408 57.1179 35.8214 57.1262 35.8935 57.1586C36.0179 57.1945 36.1448 57.221 36.2732 57.238L36.6544 57.3006H36.7658C36.903 57.3113 36.9564 57.386 36.9182 57.5234C36.8825 57.7662 36.7957 57.9987 36.6636 58.2055C36.4735 58.5036 36.2778 58.8424 36.0765 59.2219L35.648 59.8888C35.6168 59.9535 35.6114 60.0277 35.6327 60.0963L35.7761 60.5404L35.9179 60.9845L36.0704 61.572L36.2137 62.1596L36.2778 62.3656L36.3251 62.5731L36.4455 63.0264C36.4867 63.2171 36.5248 63.3651 36.5568 63.4704L36.778 64.1373L37.0006 64.8042C37.0418 64.911 37.0951 65.0591 37.1531 65.2498C37.1853 65.3484 37.1905 65.4538 37.1683 65.555C37.1436 65.6107 37.1276 65.6699 37.1211 65.7305L37.1058 65.8252L37.089 65.9213C37.0677 66.048 36.9838 66.0953 36.8359 66.0632C36.3388 65.9472 35.921 65.8572 35.5824 65.7931C35.5451 65.7891 35.5101 65.7731 35.4826 65.7475C35.4551 65.7219 35.4366 65.6882 35.4299 65.6512C35.4177 65.5713 35.3784 65.498 35.3186 65.4436C35.2882 65.4067 35.2663 65.3634 35.2546 65.317L35.0807 64.7294L34.9054 64.1587L34.7788 63.5864L34.6675 63.0309L34.5577 62.4587L34.4464 61.8879L34.4296 61.8559L34.3991 61.8086L34.3503 61.8711L34.3198 61.9352L34.2405 62.0466L34.0011 62.4587L33.7845 62.8738C33.7358 62.9493 33.7133 63.0389 33.7205 63.1286C33.6992 63.5727 33.6885 63.9176 33.6885 64.1602L33.7053 64.7157L33.7373 65.288C33.763 65.3903 33.7517 65.4985 33.7053 65.5932C33.692 65.6353 33.6813 65.6781 33.6732 65.7214L33.658 65.8633C33.6537 65.896 33.6413 65.9272 33.6218 65.9539C33.6024 65.9805 33.5765 66.0019 33.5467 66.0159C33.5222 66.0367 33.4911 66.0481 33.459 66.0481C33.4269 66.0481 33.3958 66.0367 33.3713 66.0159C33.2771 65.9639 33.1734 65.9317 33.0663 65.9213C32.9489 65.8999 32.7857 65.8572 32.5738 65.7946L32.098 65.6832C32.0034 65.6619 31.8815 65.6405 31.7335 65.6191H31.6695L31.5902 65.6039C31.5074 65.595 31.4307 65.5561 31.3745 65.4945C31.3184 65.433 31.2866 65.353 31.2852 65.2697L31.2379 63.8413L31.2608 63.179V62.5121C31.2608 62.2893 31.2501 61.9561 31.2288 61.5125V60.7815C31.2288 60.5475 31.2181 60.2194 31.1968 59.7972C31.1754 59.3394 31.1541 58.9762 31.1327 58.729L31.1175 58.6328L31.0854 58.5535L31.087 58.3993Z" fill="white"/>
<path d="M40.2409 63.5439V63.7346C40.2389 63.8514 40.2445 63.9681 40.2577 64.0841L40.273 64.1314V64.1635C40.2513 64.2897 40.2513 64.4187 40.273 64.545L40.2882 64.7357L40.305 64.9265L40.337 65.3065L40.3675 65.7033C40.3605 65.8479 40.3396 65.9915 40.305 66.1321C40.2836 66.2175 40.2669 66.2847 40.2577 66.3381C40.1954 66.3744 40.1252 66.3949 40.0532 66.3978C39.9811 66.4007 39.9095 66.386 39.8445 66.3549C39.7308 66.3062 39.6142 66.2649 39.4953 66.2313L39.3046 66.1992L39.1156 66.1519L38.8761 66.0878L38.6383 66.0237L38.5437 66.0085L38.4476 65.9932L38.2738 65.9612L38.1 65.9444C38.0508 65.937 38.006 65.9121 37.9737 65.8742C37.9415 65.8364 37.924 65.7881 37.9246 65.7383C37.9032 65.2297 37.8611 64.4666 37.798 63.4493C37.7553 62.4756 37.7238 61.7401 37.7035 61.2426C37.6913 60.9557 37.676 60.5177 37.6547 59.9241C37.6547 59.7714 37.644 59.5425 37.6227 59.2251C37.6028 58.5689 37.5861 58.0714 37.5754 57.7326C37.5619 57.661 37.5634 57.5874 37.58 57.5165C37.5965 57.4455 37.6277 57.3788 37.6715 57.3206C37.7447 57.2188 37.8239 57.1868 37.9093 57.2244C37.9905 57.2669 38.0813 57.2878 38.1729 57.2851C38.2644 57.2825 38.3538 57.2563 38.4324 57.2092C38.4964 57.1776 38.5669 57.1614 38.6383 57.1619L39.3534 57.1939L40.0671 57.2412C40.1863 57.2615 40.3032 57.2932 40.4163 57.3358L40.5901 57.3832L40.7655 57.432L41.1132 57.4625L41.4624 57.5113C41.8316 57.5495 42.1805 57.699 42.4627 57.9402C42.5556 58.0407 42.6355 58.1525 42.7006 58.2729C42.8479 58.5722 42.9443 58.894 42.9858 59.2251L43.0331 59.4952L43.0819 59.7653C43.1114 59.9438 43.1216 60.1249 43.1124 60.3056C43.1122 60.5231 43.0964 60.7404 43.0651 60.9557C42.9812 61.4226 42.9126 61.766 42.8592 61.9888C42.8299 62.1042 42.7875 62.2158 42.7327 62.3215L42.6534 62.497L42.5741 62.6496C42.5378 62.758 42.4864 62.8607 42.4216 62.9548L42.3255 63.0983L42.231 63.2249C42.1348 63.356 41.9936 63.4468 41.8345 63.4798C41.5158 63.521 41.2733 63.5484 41.104 63.5591C40.9655 63.5648 40.8282 63.5314 40.7076 63.463C40.6403 63.4379 40.5716 63.417 40.5017 63.4004L40.3736 63.3684L40.2318 63.3363L40.2409 63.5439ZM40.3202 61.734L40.4163 61.56C40.5348 61.3164 40.6047 61.0521 40.6222 60.7817C40.6965 60.2766 40.7174 59.7651 40.6847 59.2556C40.6859 58.9061 40.6345 58.5583 40.5322 58.224C40.5214 58.1801 40.5056 58.1376 40.4849 58.0974C40.4777 58.0795 40.467 58.0632 40.4534 58.0496C40.4397 58.036 40.4235 58.0252 40.4056 58.018C40.3337 57.9944 40.2597 57.978 40.1845 57.9692L39.9619 57.9539C39.9731 58.0485 39.9837 58.1503 39.9939 58.2591L40.0091 58.5445L40.1052 59.7348L40.1205 60.1636V60.6093C40.1418 61.1373 40.1571 61.5249 40.1677 61.7828C40.1779 61.8352 40.1937 61.8864 40.215 61.9354L40.3202 61.734Z" fill="white"/>
<path d="M46.6503 62.9731L45.7353 62.8297C45.714 62.9151 45.6819 63.0525 45.6408 63.2432L45.4883 64.052L45.3282 64.8776L45.2184 65.2439L45.075 65.6086L45.043 65.6712L45.011 65.7353C44.9957 65.7789 44.9641 65.8148 44.9229 65.8356C44.8816 65.8564 44.834 65.8604 44.7899 65.8467L44.7106 65.8299L44.6313 65.7994C44.4332 65.7037 44.2168 65.6516 43.9969 65.6468C43.8154 65.6361 43.6995 65.5888 43.6477 65.5033C43.5903 65.3961 43.5629 65.2754 43.5684 65.1539V64.725L43.5516 64.2962L43.5364 63.8674C43.5364 63.6029 43.5572 63.2168 43.5989 62.7091C43.6202 62.497 43.6309 62.3337 43.6309 62.2162C43.6491 61.5612 43.718 60.9087 43.8368 60.2644C43.8693 60.1158 43.9013 59.9251 43.9329 59.6921L43.9649 59.4067L44.0121 59.1015C44.0917 58.6189 44.2358 58.1492 44.4407 57.7052L44.5199 57.5617L44.5825 57.435C44.687 57.2733 44.8304 57.1405 44.9996 57.0488C45.1688 56.9571 45.3584 56.9094 45.5508 56.9101C45.7978 56.9032 46.0444 56.9357 46.2812 57.0062C46.6392 57.1288 47.0132 57.1983 47.3914 57.2122C47.5333 57.2075 47.674 57.2402 47.7993 57.3072C47.9246 57.3742 48.0301 57.473 48.105 57.5937C48.2228 57.7861 48.3248 57.9877 48.41 58.1965C48.5442 58.5435 48.6503 58.9008 48.7272 59.2648C48.8217 59.7302 48.901 60.1972 48.9651 60.6627C49.0791 61.4456 49.1215 62.2374 49.0916 63.0281L49.1084 63.4248V63.8384C49.1084 63.9971 49.0977 64.2352 49.0764 64.5526V64.7739L49.0444 65.1554L49.0123 65.5522C48.9954 65.6254 48.9847 65.6999 48.9803 65.775C48.9285 66.0176 48.7851 66.1031 48.5533 66.0283L48.3399 65.9413L48.134 65.862L48.0867 65.8467L48.0395 65.8299L47.582 65.7353L47.0589 65.6407L46.9156 65.6239C46.8727 65.616 46.8305 65.6053 46.789 65.5918C46.7272 65.5718 46.675 65.5294 46.6426 65.473C46.6102 65.4166 46.5999 65.3502 46.6137 65.2866C46.6137 64.9814 46.6137 64.7525 46.6304 64.603C46.6472 64.4534 46.6396 64.2382 46.6609 63.9208L46.6503 62.9731ZM46.3971 58.2255L46.2705 58.5109C46.2328 58.6094 46.2062 58.7117 46.1913 58.8161C46.1699 58.9535 46.1531 59.1122 46.1425 59.2923L46.112 59.7852C46.1013 59.9958 46.0799 60.243 46.0479 60.5146L45.9534 61.2456L45.9213 61.5951L45.8741 61.9278L46.2705 62.0071L46.4612 62.0544L46.667 62.1033C46.664 60.4287 46.574 59.1361 46.3971 58.2255Z" fill="white"/>
<path d="M52.8383 58.6009C52.8953 58.7588 52.9272 58.9246 52.9329 59.0923V59.5852L52.9176 59.9179C52.9069 60.0342 52.9069 60.1511 52.9176 60.2674C52.9496 60.7537 52.9496 61.2415 52.9176 61.7278C52.8961 62.0614 52.9012 62.3962 52.9329 62.7289C52.9435 62.8663 52.9496 63.0341 52.9496 63.2203L52.9329 63.4584V63.7132C52.9329 63.9991 52.9435 64.4381 52.9649 65.0302C52.9628 65.0607 52.967 65.0914 52.9773 65.1202C52.9875 65.149 53.0036 65.1754 53.0244 65.1977C53.0453 65.2201 53.0706 65.2379 53.0987 65.25C53.1267 65.2621 53.157 65.2684 53.1875 65.2683L53.4925 65.3324L53.7777 65.3797C53.9302 65.4011 53.979 65.4865 53.9302 65.6345L53.8981 65.7292L53.8509 65.8558C53.7672 65.8744 53.6819 65.8852 53.5962 65.8879C53.4696 65.8986 53.279 65.9047 53.0259 65.9047C52.9904 65.904 52.9551 65.9107 52.9223 65.9244C52.8895 65.9381 52.8599 65.9584 52.8353 65.984C52.7926 66.0466 52.724 66.0573 52.6294 66.0145C52.5292 65.9608 52.4182 65.9306 52.3046 65.926H51.0847C50.9726 65.9118 50.8616 65.8904 50.7522 65.8619L50.2444 65.7093L49.7199 65.5674C49.692 65.5608 49.6652 65.55 49.6406 65.5353V65.456L49.6253 65.3919C49.6243 65.3603 49.6297 65.3289 49.6413 65.2996C49.6528 65.2702 49.6703 65.2435 49.6926 65.2212C49.7149 65.1989 49.7416 65.1814 49.7709 65.1698C49.8003 65.1582 49.8317 65.1528 49.8632 65.1538C50.0157 65.1325 50.249 65.1111 50.5448 65.0913C50.5448 64.8257 50.5448 64.6334 50.5296 64.5037V64.0902L50.5143 63.6781L50.4976 62.8678L50.4823 62.0575C50.4716 61.878 50.4716 61.6982 50.4823 61.5188L50.4976 61.2639L50.5143 60.9938V59.2419C50.5197 58.976 50.5034 58.71 50.4656 58.4468C50.4535 58.3578 50.4484 58.268 50.4503 58.1782L50.4351 58.0256V57.873L50.3237 57.8409L50.1804 57.7936L49.6101 57.6502C49.5354 57.6395 49.4988 57.5922 49.4988 57.5067C49.4774 57.3694 49.5247 57.29 49.6406 57.2687C49.77 57.2332 49.903 57.2122 50.0371 57.2061L50.7202 57.2214L51.3866 57.2366L51.9096 57.2687L52.4174 57.3007C52.5847 57.3161 52.7508 57.3427 52.9146 57.3801L53.1525 57.4594L53.3903 57.5403C53.5504 57.5876 53.716 57.6138 53.8829 57.6181C53.9269 57.6195 53.9701 57.6305 54.0095 57.6502C54.1111 57.6715 54.1691 57.6929 54.1833 57.7143C54.194 57.7356 54.1833 57.7891 54.136 57.8669V57.9615C54.1393 57.9834 54.1379 58.0057 54.1317 58.0269C54.1255 58.0482 54.1148 58.0678 54.1003 58.0845C54.0858 58.1012 54.0679 58.1146 54.0477 58.1236C54.0275 58.1327 54.0056 58.1372 53.9835 58.137H53.857L52.8734 58.0897C52.8511 58.0896 52.8292 58.0948 52.8093 58.1049C52.7761 58.27 52.7861 58.4409 52.8383 58.6009ZM50.8392 55.3611L51.0298 55.4084C51.208 55.4453 51.3883 55.4718 51.5696 55.4878C51.5996 55.4851 51.6299 55.4899 51.6577 55.5017C51.6854 55.5135 51.7098 55.5321 51.7287 55.5556C51.7475 55.5792 51.7603 55.6071 51.7658 55.6368C51.7713 55.6665 51.7694 55.697 51.7602 55.7258L51.7282 55.9486L51.6794 56.1867C51.6337 56.3448 51.5462 56.4877 51.4262 56.6003L51.1884 56.5514L50.9505 56.5041L50.7797 56.4644L50.6043 56.4171C50.493 56.4055 50.3907 56.3507 50.3192 56.2645L50.3664 56.0265L50.4137 55.7884C50.4475 55.6161 50.5301 55.4572 50.6516 55.3306L50.8392 55.3611ZM53.1082 56.6949C53.0957 56.7002 53.0822 56.703 53.0686 56.703C53.055 56.703 53.0415 56.7002 53.0289 56.6949C52.9024 56.6628 52.7529 56.6216 52.5852 56.5682L52.1079 56.4248L52.0774 56.4095H52.0286C51.9898 56.3971 51.9571 56.3707 51.9367 56.3354C51.9164 56.3001 51.91 56.2585 51.9188 56.2187L51.9493 56.0127L51.9813 55.822C52.0187 55.6818 52.1026 55.5586 52.2192 55.4725C52.3259 55.4939 52.4891 55.5259 52.7118 55.5671L52.9649 55.6159L53.2348 55.6632C53.2641 55.6981 53.2862 55.7385 53.2998 55.782C53.3134 55.8254 53.3183 55.8712 53.3141 55.9166C53.3228 56.1818 53.2798 56.4461 53.1875 56.6949H53.1082Z" fill="white"/>
<path d="M57.1218 61.1463L57.4558 61.1142L57.7882 61.0669C58.0124 61.0414 58.2394 61.0632 58.4546 61.131C58.4941 61.0522 58.5105 60.9639 58.5019 60.8761C58.4911 60.7813 58.4911 60.6856 58.5019 60.5908L58.5187 60.3207L58.4866 59.8628L58.4546 59.405C58.4546 59.2677 58.4439 59.0495 58.4226 58.7534V58.0392C58.4121 57.8185 58.4616 57.5991 58.5659 57.4044C58.5875 57.3587 58.6259 57.3231 58.6731 57.3052C58.7203 57.2873 58.7726 57.2884 58.8191 57.3082L59.089 57.3876L59.3436 57.4837C59.6115 57.5714 59.8881 57.6298 60.1686 57.6577C60.2503 57.666 60.3279 57.6974 60.3924 57.7482C60.457 57.799 60.5057 57.8671 60.5331 57.9446C60.6885 58.2837 60.7745 58.6506 60.7862 59.0235C60.7877 59.126 60.7985 59.2281 60.8182 59.3287L60.867 59.6461C60.9416 60.0917 60.9626 60.5446 60.9295 60.9952V62.187L60.9448 62.7425V63.298L60.9616 63.7101V64.3296L60.9768 64.615L60.9936 64.9019V65.4574C60.9953 65.4898 60.9895 65.5222 60.9768 65.552C60.9622 65.6402 60.9355 65.7259 60.8975 65.8069C60.8708 65.8572 60.8327 65.9006 60.7862 65.9335L60.7069 65.9976L60.6444 66.0449C60.6337 66.0556 60.6063 66.0449 60.5651 66.0281L60.5178 66.0129L60.469 65.9976C60.4477 65.9869 60.3531 65.9549 60.1839 65.9015L59.978 65.8374L59.8026 65.7901L59.7233 65.7596L59.644 65.7275C59.5974 65.7003 59.5453 65.6836 59.4916 65.6787C59.4207 65.675 59.351 65.659 59.2857 65.6314C59.1922 65.6109 59.1016 65.5791 59.0158 65.5367C58.7733 65.4406 58.6452 65.346 58.6361 65.2514C58.5678 64.8261 58.5407 64.3953 58.5553 63.9649C58.5661 63.8803 58.5661 63.7947 58.5553 63.7101L58.54 63.4567L58.5248 62.9333L58.508 62.4251V62.3137L58.4927 62.187C58.4429 62.1743 58.3916 62.1687 58.3402 62.1703L57.991 62.155L57.6266 62.1382C57.5058 62.1175 57.3883 62.0805 57.2774 62.0283L57.1981 61.9963L57.102 61.9474C57.0691 62.0978 57.0532 62.2514 57.0547 62.4053V63.4369L57.0395 64.0092V64.5967C57.0288 64.9568 57.0288 65.1903 57.0395 65.2956C57.039 65.3398 57.0281 65.3832 57.0075 65.4223L56.9602 65.5657L56.9114 65.7565L56.8489 65.9625C56.8441 65.9883 56.8338 66.0127 56.8189 66.0343C56.8039 66.0558 56.7845 66.0738 56.762 66.0873C56.7395 66.1007 56.7144 66.1092 56.6883 66.1121C56.6623 66.1151 56.6359 66.1125 56.611 66.1044C56.5666 66.1037 56.5229 66.0933 56.4829 66.0739C55.9905 65.8639 55.4801 65.6989 54.958 65.581C54.8679 65.558 54.7872 65.5074 54.7274 65.4363C54.6675 65.3651 54.6313 65.277 54.624 65.1842C54.6008 64.9944 54.5902 64.8032 54.592 64.612L54.6088 64.3266V64.0412C54.5981 63.6078 54.6088 62.9608 54.624 62.1046L54.6713 61.2622L54.7201 60.4214L54.7033 60.0872L54.6881 59.7698C54.7094 59.4096 54.7201 59.1303 54.7201 58.9289L54.7033 58.436L54.6881 57.9598C54.6855 57.7254 54.7065 57.4912 54.7506 57.2609C54.7676 57.2014 54.789 57.1433 54.8146 57.0869L54.9107 56.9343C55.0445 56.9593 55.173 57.0074 55.2904 57.0763C55.3398 57.1008 55.3908 57.1222 55.4429 57.1403L55.5954 57.1724L55.7479 57.2197L55.9233 57.2517C56.0295 57.2748 56.1321 57.3122 56.2282 57.3632C56.348 57.4158 56.4792 57.4373 56.6095 57.4257C56.8321 57.3845 56.9739 57.4852 57.038 57.7309C57.0699 57.8062 57.0859 57.8872 57.0852 57.969C57.1066 58.3917 57.1173 58.7107 57.1173 58.9213L57.1218 61.1463Z" fill="white"/>
<path d="M63.9595 62.3214L64.452 61.3691L64.9613 60.4169C65.063 60.2134 65.1845 59.9962 65.3258 59.7652C65.3807 59.6631 65.408 59.5485 65.4051 59.4325C65.4051 59.0938 65.4051 58.845 65.4203 58.6863C65.4327 58.4149 65.4597 58.1444 65.5012 57.876C65.5223 57.7777 65.554 57.682 65.5957 57.5906C65.6275 57.5254 65.6826 57.4745 65.75 57.4479C65.8175 57.4213 65.8925 57.4211 65.9602 57.4471L66.2301 57.5265C66.3183 57.5546 66.4085 57.576 66.5 57.5906C66.7725 57.6729 67.0555 57.7155 67.3402 57.7172C67.3936 57.7091 67.4481 57.7131 67.4998 57.7289C67.5514 57.7447 67.5988 57.7719 67.6385 57.8086C67.6782 57.8452 67.7091 57.8903 67.729 57.9406C67.7489 57.9908 67.7573 58.0449 67.7535 58.0988C67.7946 58.5428 67.8175 58.8755 67.8175 59.0983L67.8328 59.5272V62.6388C67.8114 63.1902 67.8007 63.6084 67.8007 63.8932L67.8175 64.2595V64.6395C67.8237 65.0122 67.7643 65.3831 67.6421 65.7352C67.6305 65.7804 67.6087 65.8224 67.5784 65.8578C67.548 65.8933 67.51 65.9213 67.4671 65.9397C67.4243 65.9581 67.3777 65.9665 67.3312 65.9641C67.2846 65.9617 67.2392 65.9487 67.1984 65.9259C66.7493 65.7773 66.2872 65.6711 65.8183 65.6085C65.6863 65.6006 65.5626 65.5415 65.4735 65.4438C65.3844 65.346 65.3368 65.2173 65.341 65.0851V64.9096L65.3578 64.322V63.7513L65.3731 63.2584V62.6556L65.341 62.5594L65.2312 62.7502L65.1032 62.9562L64.6914 63.6552L64.2782 64.3694L64.1257 64.6395L63.9839 64.9096C63.9597 64.9483 63.9432 64.9913 63.9351 65.0363L63.9046 65.1644L63.8405 65.5292L63.7765 65.8939C63.7551 66.0099 63.6667 66.0694 63.5081 66.0694C63.4361 66.0697 63.365 66.0529 63.3007 66.0206C63.0801 65.9355 62.8518 65.8716 62.6191 65.8298L62.2775 65.7733L61.9283 65.7092H61.8505C61.7337 65.6943 61.6272 65.6349 61.5531 65.5434C61.479 65.4519 61.4429 65.3353 61.4525 65.2178L61.4052 63.121C61.3839 62.5717 61.3732 62.1581 61.3732 61.8834L61.39 61.1997V60.0888L61.3732 59.6599C61.3732 59.4692 61.3625 59.2372 61.3427 58.9625L61.2939 58.2636C61.2679 57.9716 61.3118 57.6776 61.422 57.4059C61.4281 57.3758 61.441 57.3474 61.4596 57.3229C61.4783 57.2985 61.5023 57.2786 61.5297 57.2648C61.5572 57.251 61.5874 57.2436 61.6182 57.2432C61.6489 57.2428 61.6794 57.2494 61.7072 57.2625L62.0244 57.3418L62.3568 57.438C62.5441 57.4822 62.7362 57.5033 62.9286 57.5006C63.0279 57.5046 63.1242 57.535 63.2078 57.5886C63.2914 57.6423 63.3593 57.7172 63.4044 57.8058C63.5126 57.9984 63.5878 58.2078 63.627 58.4253C63.7548 58.9122 63.8134 59.4146 63.8009 59.9178L63.8177 60.1879L63.8329 60.4565C63.8329 61.2623 63.8329 61.8651 63.8177 62.268L63.8329 62.3778V62.474C63.8369 62.4786 63.8418 62.4823 63.8473 62.485C63.8528 62.4876 63.8588 62.4891 63.8649 62.4893C63.8997 62.4352 63.9313 62.3792 63.9595 62.3214Z" fill="white"/>
</g>
<defs>
<clipPath id="clip0_0_62">
<rect width="93" height="89" fill="white"/>
</clipPath>
</defs>
</svg>
